<svg xmlns="http://www.w3.org/2000/svg" xmlns:xlink="http://www.w3.org/1999/xlink" viewBox="0,0,256,256" width="24px" height="24px" fill-rule="nonzero"><g fill="#ffffff" fill-rule="nonzero" stroke="none" stroke-width="1" stroke-linecap="butt" stroke-linejoin="miter" stroke-miterlimit="10" stroke-dasharray="" stroke-dashoffset="0" font-family="none" font-weight="none" font-size="none" text-anchor="none" style="mix-blend-mode: normal"><g transform="scale(10.66667,10.66667)"><path d="M12,2c-5.50804,0 -10,4.49196 -10,10c0,5.50804 4.49196,10 10,10c5.50804,0 10,-4.49196 10,-10c0,-5.50804 -4.49196,-10 -10,-10zM12,4.5c4.15695,0 7.5,3.34306 7.5,7.5c0,4.15694 -3.34305,7.5 -7.5,7.5c-4.15695,0 -7.5,-3.34306 -7.5,-7.5c0,-4.15694 3.34305,-7.5 7.5,-7.5zM11.98047,6.73242c-0.68959,0.01078 -1.24018,0.57797 -1.23047,1.26758v2.75h-2.75c-0.45079,-0.00638 -0.8701,0.23047 -1.09736,0.61984c-0.22726,0.38937 -0.22726,0.87095 0,1.26032c0.22726,0.38937 0.64656,0.62622 1.09736,0.61984h2.75v2.75c-0.00638,0.45079 0.23047,0.8701 0.61984,1.09736c0.38937,0.22726 0.87095,0.22726 1.26032,0c0.38937,-0.22726 0.62622,-0.64656 0.61984,-1.09736v-2.75h2.75c0.45079,0.00638 0.8701,-0.23047 1.09736,-0.61984c0.22726,-0.38937 0.22726,-0.87095 0,-1.26032c-0.22726,-0.38937 -0.64656,-0.62622 -1.09736,-0.61984h-2.75v-2.75c0.00476,-0.33796 -0.12753,-0.66344 -0.36671,-0.90226c-0.23918,-0.23881 -0.56487,-0.3706 -0.90282,-0.36532z"></path></g></g></svg>